<?xml version='1.0' encoding='utf-8'?>
<svg xmlns="http://www.w3.org/2000/svg" version="1.0" width="557.000000pt" height="564.000000pt" viewBox="0 0 557.000000 564.000000" preserveAspectRatio="xMidYMid meet">
<g transform="translate(0.000000,564.000000) scale(0.100000,-0.100000)" fill="#000000" stroke="none">
<ellipse cx="2785" cy="2820" rx="2785" ry="2820" fill="#22c55e" /><path d="M2485 5464 c-731 -84 -1376 -454 -1810 -1039 -282 -381 -456 -819 -517 -1305 -17 -133 -16 -505 1 -630 101 -749 465 -1390 1034 -1820 521 -394 1196 -585 1827 -515 325 36 596 114 885 255 1110 542 1699 1830 1394 3051 -141 566 -448 1058 -889 1424 -201 166 -499 339 -741 429 -379 140 -802 194 -1184 150z m516 -19 c254 -27 511 -88 694 -165 11 -5 45 -19 75 -31 87 -36 256 -125 361 -190 117 -74 295 -212 292 -227 -2 -6 3 -9 10 -6 18 6 227 -203 329 -329 249 -310 427 -671 521 -1057 51 -209 70 -375 71 -620 0 -124 -3 -247 -6 -275 -51 -379 -127 -641 -265 -920 -177 -354 -349 -572 -707 -890 -43 -39 -188 -140 -276 -193 -348 -211 -704 -328 -1109 -367 -191 -19 -287 -19 -466 0 -367 37 -690 136 -996 305 -144 80 -199 118 -193 135 4 8 11 12 18 8 7 -4 7 -1 -1 9 -7 8 -12 17 -10 19 1 2 0 3 -3 1 -3 -2 -6 -8 -6 -13 -1 -5 -2 -13 -3 -19 -2 -19 -18 -10 -127 72 -131 98 -338 298 -441 425 -71 87 -84 119 -45 107 15 -5 15 -4 -1 6 -13 8 -15 15 -8 24 8 9 7 13 -3 13 -8 0 -13 -8 -11 -18 10 -49 -21 -19 -95 93 -437 665 -553 1495 -316 2267 99 322 281 658 494 911 114 135 281 298 290 283 5 -9 12 -6 21 10 13 21 13 21 -5 7 -11 -8 -8 -2 6 14 49 54 246 195 394 280 460 265 1006 384 1517 331z" fill="#22c55e" />
<ellipse cx="2275" cy="4002.5" rx="140" ry="307.5" fill="#ef4444" /><ellipse cx="3273.5" cy="4026.5" rx="137.5" ry="276.5" fill="#ef4444" /><path d="M2536 5412 c-3 -5 1 -9 9 -9 8 0 12 4 9 9 -3 4 -7 8 -9 8 -2 0 -6 -4 -9 -8z" fill="#000000" />
<path d="M2030 5334 c-14 -10 -30 -22 -35 -28 -6 -6 -22 -20 -35 -31 l-25 -20 16 20 c32 40 32 49 1 27 -17 -13 -40 -34 -51 -48 -22 -29 -508 -538 -619 -649 -2 -2 2 -13 8 -25 7 -12 8 -20 2 -16 -5 3 -13 -1 -16 -10 -4 -9 -9 -14 -13 -11 -3 4 0 13 7 22 7 9 11 18 8 20 -3 3 -32 -22 -64 -56 -185 -192 -206 -214 -417 -439 -43 -47 -126 -133 -183 -191 -57 -58 -101 -109 -96 -114 4 -4 -1 -6 -10 -2 -10 3 -19 0 -22 -9 -4 -9 -2 -12 5 -8 7 4 10 1 7 -7 -3 -8 -10 -13 -16 -12 -5 1 -18 -7 -28 -19 -19 -21 -19 -21 3 -9 38 19 36 12 -7 -30 -23 -23 -43 -39 -46 -36 -3 2 2 12 11 20 8 9 15 19 15 24 -1 4 -9 -2 -20 -15 -10 -12 -17 -31 -15 -42 4 -20 1 -22 -32 -23 -23 -1 -76 -55 -67 -68 3 -6 -1 -18 -8 -27 -23 -26 -30 -42 -20 -42 5 0 15 11 22 25 7 13 17 22 23 18 5 -3 4 5 -3 17 -11 20 -10 22 5 16 9 -3 22 -3 28 1 7 4 2 10 -13 14 -24 7 -23 7 6 8 17 1 38 9 47 19 10 9 33 34 54 55 20 21 42 36 48 33 7 -2 12 2 11 9 -1 12 74 96 246 276 174 182 391 409 458 478 41 43 147 154 235 247 88 93 216 227 285 297 69 71 139 143 155 161 17 18 66 69 110 114 81 83 89 95 45 66z m-130 -128 c0 -3 -4 -8 -10 -11 -5 -3 -10 -1 -10 4 0 6 5 11 10 11 6 0 10 -2 10 -4z m-60 -60 c0 -3 -4 -8 -10 -11 -5 -3 -10 -1 -10 4 0 6 5 11 10 11 6 0 10 -2 10 -4z m-74 -72 c-1 -8 -9 -20 -17 -25 -26 -16 -29 -9 -7 16 25 29 27 30 24 9z m-156 -167 c0 -2 -15 -16 -32 -33 l-33 -29 29 33 c28 30 36 37 36 29z m-150 -156 c-5 -11 -15 -23 -21 -27 -6 -3 -3 5 6 20 20 30 30 35 15 7z m-40 -34 c0 -2 -10 -12 -22 -23 l-23 -19 19 23 c18 21 26 27 26 19z m-57 -71 c-10 -13 -20 -22 -22 -20 -4 4 29 44 36 44 2 0 -4 -11 -14 -24z m-233 -239 c0 -2 -12 -14 -27 -28 l-28 -24 24 28 c23 25 31 32 31 24z m-125 -137 c-3 -5 -12 -10 -18 -10 -7 0 -6 4 3 10 19 12 23 12 15 0z m-42 -35 c-3 -9 -8 -14 -10 -11 -3 3 -2 9 2 15 9 16 15 13 8 -4z m-353 -379 c0 -2 -8 -10 -17 -17 -16 -13 -17 -12 -4 4 13 16 21 21 21 13z m-240 -256 c0 -5 -5 -10 -11 -10 -5 0 -7 5 -4 10 3 6 8 10 11 10 2 0 4 -4 4 -10z" fill="#000000" />
<path d="M3581 5273 c25 -27 74 -79 110 -116 97 -103 151 -159 304 -318 160 -165 533 -554 589 -614 133 -141 219 -225 227 -220 5 3 7 0 4 -7 -3 -7 36 -54 90 -108 52 -52 95 -100 95 -107 0 -7 5 -13 12 -13 7 0 41 -30 75 -66 35 -36 63 -63 63 -59 0 4 15 -10 33 -32 18 -21 39 -39 47 -41 10 -2 8 3 -5 18 -11 12 -19 25 -18 29 1 3 -5 5 -14 3 -9 -2 -12 1 -8 8 4 6 -4 21 -17 33 -12 13 -47 49 -77 82 -38 42 -51 52 -46 34 6 -19 2 -18 -19 11 -14 19 -30 46 -36 59 -6 14 -16 21 -25 18 -8 -4 -12 -1 -9 6 2 7 -31 49 -73 93 -210 220 -435 454 -498 519 -255 264 -471 489 -476 497 -4 6 -12 7 -19 3 -9 -5 -11 -4 -6 4 4 7 -32 51 -92 114 -54 56 -114 118 -133 138 -34 36 -95 79 -114 79 -5 0 11 -21 36 -47z m1539 -1569 c0 -2 -9 0 -20 6 -11 6 -20 13 -20 16 0 2 9 0 20 -6 11 -6 20 -13 20 -16z" fill="#000000" />
<path d="M3780 5200 c8 -5 20 -10 25 -10 6 0 3 5 -5 10 -8 5 -19 10 -25 10 -5 0 -3 -5 5 -10z" fill="#000000" />
<path d="M3812 5136 c7 -8 15 -12 17 -11 5 6 -10 25 -20 25 -5 0 -4 -6 3 -14z" fill="#000000" />
<path d="M3925 5111 c-3 -5 -2 -12 3 -15 5 -3 9 1 9 9 0 17 -3 19 -12 6z" fill="#000000" />
<path d="M3962 5111 c-11 -7 -11 -9 0 -14 9 -3 15 1 15 9 0 8 -1 14 -1 14 -1 0 -7 -4 -14 -9z" fill="#000000" />
<path d="M1423 5046 c-9 -11 -9 -15 0 -19 7 -3 14 3 14 14 2 22 2 22 -14 5z" fill="#000000" />
<path d="M1386 5008 c3 -5 10 -6 15 -3 13 9 11 12 -6 12 -8 0 -12 -4 -9 -9z" fill="#000000" />
<path d="M4262 4944 c10 -10 20 -16 22 -13 3 3 -5 11 -17 18 -21 13 -21 12 -5 -5z" fill="#000000" />
<path d="M4377 4849 c12 -12 25 -20 28 -17 3 3 -7 13 -22 23 l-28 17 22 -23z" fill="#000000" />
<path d="M4423 4803 c9 -2 14 -9 11 -15 -4 -7 -2 -8 5 -4 15 10 4 26 -17 25 -15 -1 -15 -2 1 -6z" fill="#000000" />
<path d="M4456 4781 c-3 -5 1 -11 9 -14 9 -4 12 -1 8 9 -6 16 -10 17 -17 5z" fill="#000000" />
<path d="M1020 4750 c-9 -6 -10 -10 -3 -10 6 0 15 5 18 10 8 12 4 12 -15 0z" fill="#000000" />
<path d="M992 4735 c3 -3 -14 -27 -38 -52 -24 -25 -44 -50 -44 -55 0 -5 -5 -6 -12 -2 -7 4 -8 3 -4 -4 4 -7 2 -12 -4 -12 -6 0 -15 -11 -22 -25 -6 -13 -15 -22 -20 -19 -5 3 -7 0 -6 -7 2 -7 -4 -13 -12 -14 -8 0 -15 -4 -16 -10 -2 -24 -17 -44 -28 -38 -6 4 -4 -2 4 -12 14 -17 13 -18 -2 -12 -10 3 -17 3 -17 -1 3 -20 -2 -33 -11 -27 -5 3 -7 0 -4 -8 3 -8 -2 -20 -11 -27 -8 -7 -15 -19 -15 -27 0 -13 -3 -13 -17 -2 -16 13 -17 12 -4 -4 12 -15 11 -20 -8 -36 -11 -10 -21 -24 -21 -30 0 -6 -18 -49 -40 -96 -22 -47 -40 -89 -40 -95 0 -6 -5 -8 -12 -4 -6 4 -8 3 -4 -4 3 -6 -2 -34 -12 -64 -40 -113 -52 -154 -52 -171 0 -10 -3 -16 -7 -14 -5 3 -9 -6 -9 -19 -3 -40 15 -16 32 44 27 97 51 164 89 252 20 47 42 97 48 113 6 15 15 27 20 27 4 0 5 5 1 11 -3 6 -2 14 3 18 17 10 92 139 86 145 -4 3 -1 6 5 6 5 0 21 17 33 38 13 20 29 41 36 45 7 4 13 12 13 18 0 5 18 29 40 51 22 23 40 47 40 53 1 5 16 22 36 36 29 23 32 28 17 33 -10 4 -15 4 -11 1z" fill="#000000" />
<path d="M4512 4715 c6 -14 15 -25 20 -25 12 0 9 12 -6 33 -19 25 -27 21 -14 -8z" fill="#000000" />
<path d="M4551 4684 c0 -11 3 -14 6 -6 3 7 2 16 -1 19 -3 4 -6 -2 -5 -13z" fill="#000000" />
<path d="M4571 4661 c-11 -7 -9 -10 8 -16 12 -3 19 -10 16 -15 -3 -5 3 -18 15 -30 11 -11 20 -22 20 -25 0 -3 19 -31 42 -62 24 -31 64 -93 90 -137 66 -114 65 -112 73 -104 4 4 2 14 -5 23 -7 8 -10 24 -7 36 4 16 3 18 -9 8 -11 -9 -14 -8 -14 3 0 8 5 19 10 26 7 9 7 9 -2 2 -16 -13 -28 -13 -28 1 0 6 -9 23 -19 37 -10 15 -20 32 -20 37 -2 11 -28 49 -49 71 -13 13 -8 18 11 15 5 -1 6 3 2 8 -3 6 -13 7 -22 4 -11 -4 -14 -3 -9 5 4 7 2 12 -4 12 -6 0 -8 4 -5 10 4 6 -1 7 -11 3 -12 -4 -15 -3 -10 5 4 7 2 12 -4 12 -6 0 -9 4 -6 9 4 5 -7 20 -23 34 -17 14 -27 28 -24 31 9 9 0 7 -16 -3z m50 -48 c13 -16 12 -17 -3 -4 -17 13 -22 21 -14 21 2 0 10 -8 17 -17z" fill="#000000" />
<path d="M1207 4583 c3 -7 6 -13 8 -13 2 0 5 6 8 13 3 8 -1 14 -8 14 -7 0 -11 -6 -8 -14z" fill="#000000" />
<path d="M4401 4373 c7 -12 15 -20 18 -17 3 2 -3 12 -13 22 -17 16 -18 16 -5 -5z" fill="#000000" />
<path d="M656 4323 c-6 -14 -5 -15 5 -6 7 7 10 15 7 18 -3 3 -9 -2 -12 -12z" fill="#000000" />
<path d="M2222 4280 c-59 -49 -87 -191 -66 -333 14 -98 37 -151 77 -181 95 -71 182 173 137 388 -11 54 -65 144 -78 131 -4 -4 0 -12 9 -18 9 -7 26 -33 38 -59 33 -73 26 -215 -13 -253 -9 -9 -16 -20 -16 -25 0 -5 -14 -12 -32 -15 -28 -7 -36 -3 -64 28 -25 27 -34 47 -39 92 -9 65 1 168 15 173 6 2 10 10 10 18 0 8 14 28 30 44 34 33 28 40 -8 10z m139 -311 c-5 -16 -8 -35 -6 -42 6 -14 -23 -93 -45 -123 -19 -26 -55 -41 -47 -20 4 10 1 13 -8 9 -8 -3 -12 -10 -8 -17 3 -6 -4 -1 -15 11 -12 12 -27 40 -34 62 -7 23 -16 41 -20 41 -5 0 -8 14 -8 30 0 36 6 37 34 5 30 -35 75 -42 104 -15 12 11 22 17 23 13 1 -15 27 62 29 87 2 18 4 20 7 7 3 -10 0 -31 -6 -48z m-194 19 c-3 -8 -6 -5 -6 6 -1 11 2 17 5 13 3 -3 4 -12 1 -19z" fill="#ef4444" />
<path d="M3238 4286 c-15 -8 -29 -12 -31 -9 -3 2 -8 -1 -13 -8 -5 -8 -3 -10 6 -4 7 4 11 4 8 -1 -62 -128 -72 -249 -31 -397 16 -57 65 -117 97 -117 24 0 75 68 90 120 47 159 15 374 -63 414 -36 19 -30 19 -63 2z m70 -21 c24 -20 34 -41 47 -96 18 -83 14 -142 -15 -199 -22 -43 -59 -65 -91 -55 -21 7 -63 75 -73 117 -10 42 12 165 37 208 19 35 31 44 59 49 3 0 20 -10 36 -24z m26 -425 c-15 -33 -29 -60 -33 -61 -3 0 -14 -2 -24 -4 -14 -3 -17 1 -12 13 5 13 4 14 -6 5 -10 -10 -17 -6 -35 18 -13 17 -20 38 -17 47 4 9 2 13 -4 9 -12 -7 -30 69 -20 80 4 3 16 -6 29 -20 13 -15 38 -28 57 -31 29 -4 39 0 58 22 13 15 24 34 25 42 1 8 3 -2 5 -22 3 -26 -4 -57 -23 -98z" fill="#ef4444" />
<path d="M3260 4255 c0 -5 5 -17 10 -25 5 -8 10 -10 10 -5 0 6 -5 17 -10 25 -5 8 -10 11 -10 5z" fill="#000000" />
<path d="M3295 4230 c-8 -13 3 -30 18 -30 8 0 7 3 -2 9 -7 5 -10 14 -7 20 4 6 5 11 2 11 -3 0 -8 -4 -11 -10z" fill="#000000" />
<path d="M611 4256 c-9 -10 -9 -16 -1 -21 6 -4 9 -14 6 -22 -3 -8 -2 -12 4 -9 5 3 11 14 14 25 3 15 1 18 -12 14 -12 -3 -11 -1 3 11 11 9 15 16 9 16 -6 0 -16 -6 -22 -14z" fill="#000000" />
<path d="M4830 4255 c0 -7 44 -100 51 -105 7 -6 81 -215 81 -227 0 -11 19 -33 29 -33 9 0 7 5 -24 68 -10 19 -15 38 -11 43 3 5 0 9 -5 9 -6 0 -10 3 -9 8 1 8 -7 31 -28 80 -8 18 -14 38 -14 45 0 7 -8 24 -17 37 -10 14 -16 33 -15 44 2 11 -1 16 -7 12 -6 -4 -11 0 -11 8 0 9 -4 16 -10 16 -5 0 -10 -2 -10 -5z" fill="#000000" />
<path d="M4873 4253 c9 -2 14 -9 11 -15 -4 -7 -2 -8 5 -4 15 10 4 26 -17 25 -15 -1 -15 -2 1 -6z" fill="#000000" />
<path d="M4889 4213 c-13 -16 -12 -17 4 -4 16 13 21 21 13 21 -2 0 -10 -8 -17 -17z" fill="#000000" />
<path d="M2226 4212 c-3 -5 1 -9 9 -9 8 0 12 4 9 9 -3 4 -7 8 -9 8 -2 0 -6 -4 -9 -8z" fill="#000000" />
<path d="M4505 4210 c-3 -6 1 -7 9 -4 18 7 21 14 7 14 -6 0 -13 -4 -16 -10z" fill="#000000" />
<path d="M2131 4154 c0 -11 3 -14 6 -6 3 7 2 16 -1 19 -3 4 -6 -2 -5 -13z" fill="#000000" />
<path d="M4969 4139 c0 -2 -2 -11 -4 -20 -1 -9 3 -16 10 -16 7 0 12 6 11 13 -2 13 -15 31 -17 23z" fill="#000000" />
<path d="M4857 4041 c-4 -17 -3 -21 5 -13 5 5 8 16 6 23 -3 8 -7 3 -11 -10z" fill="#000000" />
<path d="M2121 4024 c0 -11 3 -14 6 -6 3 7 2 16 -1 19 -3 4 -6 -2 -5 -13z" fill="#000000" />
<path d="M5086 3913 c-6 -14 -5 -15 5 -6 7 7 10 15 7 18 -3 3 -9 -2 -12 -12z" fill="#000000" />
<path d="M376 3808 c3 -5 10 -6 15 -3 13 9 11 12 -6 12 -8 0 -12 -4 -9 -9z" fill="#000000" />
<path d="M2163 3776 c0 -8 4 -13 8 -10 4 2 10 0 14 -5 3 -5 -3 -14 -12 -20 -10 -6 -13 -11 -6 -11 6 0 15 5 18 11 5 7 13 5 25 -6 14 -13 20 -14 26 -3 4 7 3 10 -1 5 -5 -4 -23 6 -40 23 -21 20 -32 26 -32 16z" fill="#000000" />
<path d="M5130 3776 c0 -2 8 -10 18 -17 15 -13 16 -12 3 4 -13 16 -21 21 -21 13z" fill="#000000" />
<path d="M360 3755 c-6 -8 -10 -19 -8 -24 1 -6 8 1 15 14 13 28 11 31 -7 10z" fill="#000000" />
<path d="M3335 3761 c-3 -5 -2 -12 3 -15 5 -3 9 1 9 9 0 17 -3 19 -12 6z" fill="#000000" />
<path d="M5005 3738 c40 -169 44 -435 10 -638 -13 -74 -30 -160 -39 -190 -28 -101 -76 -240 -96 -280 -22 -44 -24 -50 -11 -50 10 0 61 111 61 133 0 9 4 19 10 22 10 6 29 67 37 120 3 17 9 34 14 40 5 5 9 18 9 30 0 16 2 17 9 6 6 -10 9 0 7 30 -1 24 1 49 5 54 17 24 34 229 31 380 -5 226 -8 264 -21 312 -12 44 -36 73 -26 31z" fill="#000000" />
<path d="M3306 3728 c3 -5 10 -6 15 -3 13 9 11 12 -6 12 -8 0 -12 -4 -9 -9z" fill="#000000" />
<path d="M5161 3724 c0 -11 3 -14 6 -6 3 7 2 16 -1 19 -3 4 -6 -2 -5 -13z" fill="#000000" />
<path d="M469 3653 c-3 -25 -6 -46 -9 -58 -5 -22 -5 -433 1 -429 3 2 9 -25 12 -60 3 -35 16 -101 27 -147 13 -48 19 -96 16 -113 -6 -27 -5 -29 7 -12 9 13 14 14 14 5 0 -24 67 -224 78 -231 6 -5 6 -8 1 -8 -6 0 -5 -5 2 -12 7 -7 12 -15 12 -19 0 -13 -155 -29 -290 -29 -137 0 -140 0 -140 -22 0 -21 1 -21 14 -3 13 18 13 18 23 0 10 -17 23 -18 188 -12 133 5 180 10 189 20 15 19 44 28 51 17 3 -5 -7 -11 -22 -14 -16 -2 10 -2 57 0 172 10 470 94 753 214 90 38 144 66 140 72 -3 7 -1 8 5 4 6 -4 62 15 124 42 62 27 145 61 183 76 39 15 86 34 105 43 95 42 341 108 461 123 125 15 505 13 637 -5 151 -20 293 -56 432 -112 58 -23 334 -140 385 -163 11 -5 52 -22 90 -38 39 -16 120 -50 180 -75 165 -69 582 -184 642 -176 10 1 25 -1 33 -4 27 -11 231 -27 341 -27 81 0 108 3 112 14 4 10 -24 15 -136 22 -78 4 -164 9 -192 10 -27 1 -57 4 -65 7 -41 15 -70 17 -70 5 0 -8 -3 -9 -8 -3 -4 6 -72 23 -152 39 -217 43 -475 133 -869 305 -91 40 -171 69 -178 66 -8 -2 -12 -1 -9 4 7 10 10 9 -159 68 -71 24 -188 58 -260 75 -123 29 -144 31 -388 36 -279 5 -376 -3 -558 -44 -124 -28 -141 -33 -134 -44 3 -5 0 -12 -6 -16 -8 -4 -9 -3 -5 4 9 15 -17 16 -42 2 -15 -8 -185 -79 -629 -261 -215 -88 -376 -144 -499 -173 -127 -30 -298 -56 -313 -47 -5 4 -13 20 -17 36 -4 17 -15 48 -25 70 -10 22 -30 78 -45 125 -14 47 -28 92 -31 100 -3 8 -7 22 -8 30 -2 8 -13 67 -26 130 -19 96 -22 150 -23 325 -1 116 3 227 7 248 5 24 4 37 -3 37 -5 0 -11 -8 -11 -17z m324 -1100 c-7 -2 -19 -2 -25 0 -7 3 -2 5 12 5 14 0 19 -2 13 -5z m-186 -9 c-3 -3 -12 -4 -19 -1 -8 3 -5 6 6 6 11 1 17 -2 13 -5z m4283 -4 c0 -5 -2 -10 -4 -10 -3 0 -8 5 -11 10 -3 6 -1 10 4 10 6 0 11 -4 11 -10z m-4330 -10 c0 -5 -15 -9 -32 -9 l-33 1 30 8 c17 4 31 8 33 9 1 0 2 -3 2 -9z m4367 4 c-3 -3 -12 -4 -19 -1 -8 3 -5 6 6 6 11 1 17 -2 13 -5z m53 2 c0 -2 -7 -7 -16 -10 -8 -3 -12 -2 -9 4 6 10 25 14 25 6z m108 -13 c-10 -2 -26 -2 -35 0 -10 3 -2 5 17 5 19 0 27 -2 18 -5z m-4695 -10 c-23 -2 -64 -2 -90 0 -26 2 -7 3 42 3 50 0 71 -1 48 -3z m4830 0 c-13 -2 -33 -2 -45 0 -13 2 -3 4 22 4 25 0 35 -2 23 -4z" fill="#000000" />
<path d="M225 3271 c-3 -5 -2 -12 3 -15 5 -3 9 1 9 9 0 17 -3 19 -12 6z" fill="#000000" />
<path d="M5287 3223 c3 -7 6 -13 8 -13 2 0 5 6 8 13 3 8 -1 14 -8 14 -7 0 -11 -6 -8 -14z" fill="#000000" />
<path d="M217 3183 c3 -7 6 -13 8 -13 2 0 5 6 8 13 3 8 -1 14 -8 14 -7 0 -11 -6 -8 -14z" fill="#000000" />
<path d="M5290 3111 c0 -6 4 -13 10 -16 6 -3 7 1 4 9 -7 18 -14 21 -14 7z" fill="#000000" />
<path d="M1998 3053 c7 -3 16 -2 19 1 4 3 -2 6 -13 5 -11 0 -14 -3 -6 -6z" fill="#000000" />
<path d="M885 2660 c-3 -6 1 -7 9 -4 18 7 21 14 7 14 -6 0 -13 -4 -16 -10z" fill="#000000" />
<path d="M955 2660 c-3 -6 1 -7 9 -4 18 7 21 14 7 14 -6 0 -13 -4 -16 -10z" fill="#000000" />
<path d="M904 2645 c-18 -14 -18 -14 4 -8 12 3 22 9 22 14 0 12 -3 11 -26 -6z" fill="#000000" />
<path d="M4243 2615 c0 -7 6 -11 14 -8 7 3 13 6 13 8 0 2 -6 5 -13 8 -8 3 -14 -1 -14 -8z" fill="#000000" />
<path d="M4310 2626 c0 -2 8 -10 18 -17 15 -13 16 -12 3 4 -13 16 -21 21 -21 13z" fill="#000000" />
<path d="M221 2504 c0 -11 3 -14 6 -6 3 7 2 16 -1 19 -3 4 -6 -2 -5 -13z" fill="#000000" />
<path d="M4791 2453 c-17 -31 -31 -60 -31 -65 0 -4 -4 -8 -8 -8 -5 0 -14 -11 -20 -25 -32 -70 -185 -258 -312 -383 -291 -285 -686 -496 -1110 -591 -217 -49 -335 -61 -569 -60 -449 1 -863 113 -1239 335 -215 128 -387 274 -564 479 -81 94 -68 76 -145 195 -35 52 -66 100 -70 105 -5 6 -14 22 -20 38 -11 24 -33 38 -33 21 0 -13 44 -84 52 -84 5 0 6 -5 3 -11 -4 -6 0 -16 9 -22 8 -7 28 -38 45 -69 16 -32 32 -52 34 -45 3 7 6 4 6 -5 1 -10 5 -18 11 -18 5 0 7 -8 3 -17 -3 -10 -3 -15 2 -11 8 8 16 1 65 -62 34 -45 84 -102 128 -147 13 -13 20 -28 17 -33 -3 -5 0 -8 7 -5 7 3 35 -17 61 -45 26 -27 51 -50 55 -50 4 0 36 -25 70 -55 35 -30 67 -55 71 -55 4 0 17 -9 29 -20 12 -12 22 -19 22 -16 0 4 35 -24 71 -56 13 -12 19 -14 19 -5 0 7 3 8 8 2 4 -5 21 -18 37 -27 17 -10 29 -22 27 -28 -1 -7 2 -9 7 -6 13 8 73 -19 64 -28 -5 -4 -3 -7 2 -5 11 3 27 -4 152 -63 45 -21 87 -38 93 -38 6 0 30 -9 52 -20 23 -11 50 -20 60 -20 10 0 18 -4 18 -9 0 -6 8 -10 18 -9 9 0 49 -10 87 -22 39 -11 81 -23 95 -26 14 -3 39 -8 55 -12 17 -5 42 -7 57 -7 15 1 24 -3 22 -7 -3 -4 3 -8 13 -8 10 0 92 -8 183 -18 132 -14 200 -17 340 -11 96 5 186 10 200 12 69 11 157 20 174 18 12 -2 16 1 11 9 -6 9 2 11 29 8 20 -2 36 -1 36 3 0 4 19 10 43 14 23 4 69 16 102 26 33 11 70 21 83 24 12 2 29 8 38 13 9 5 25 7 35 5 11 -3 19 -1 19 5 0 6 10 14 23 18 27 8 94 37 162 69 55 26 85 38 100 39 6 1 21 11 35 24 13 12 30 22 37 22 7 0 15 0 18 0 3 0 13 7 23 16 9 9 48 36 87 60 38 25 72 48 75 52 13 18 80 62 95 62 9 0 14 4 11 8 -6 10 9 24 97 92 31 25 57 51 57 58 0 9 6 12 17 8 10 -4 15 -4 11 -1 -3 4 16 30 42 58 27 29 59 63 72 77 13 14 34 42 48 62 14 21 29 38 33 38 5 0 5 5 2 10 -3 6 -2 10 3 10 11 0 114 150 138 202 10 20 21 35 26 32 4 -3 5 1 2 9 -3 8 -1 18 5 22 13 8 14 25 2 25 -5 0 -23 -26 -40 -57z" fill="#000000" />
<path d="M216 2432 c-3 -5 1 -17 8 -27 12 -17 13 -17 11 3 -2 26 -11 37 -19 24z" fill="#000000" />
<path d="M5286 2432 c-3 -5 1 -9 9 -9 8 0 12 4 9 9 -3 4 -7 8 -9 8 -2 0 -6 -4 -9 -8z" fill="#000000" />
<path d="M5280 2386 c0 -2 8 -10 18 -17 15 -13 16 -12 3 4 -13 16 -21 21 -21 13z" fill="#000000" />
<path d="M5211 2154 c0 -11 3 -14 6 -6 3 7 2 16 -1 19 -3 4 -6 -2 -5 -13z" fill="#000000" />
<path d="M360 1863 c5 -2 8 -9 5 -13 -3 -5 -1 -11 4 -14 5 -4 8 2 7 11 -2 9 -8 18 -15 19 -6 1 -7 0 -1 -3z" fill="#000000" />
<path d="M380 1766 c0 -2 8 -10 18 -17 15 -13 16 -12 3 4 -13 16 -21 21 -21 13z" fill="#000000" />
<path d="M415 1720 c-3 -5 -1 -10 5 -10 6 0 8 -5 4 -12 -4 -7 -3 -8 4 -4 7 4 12 1 12 -8 0 -9 5 -16 11 -16 5 0 7 5 3 12 -5 7 -3 8 5 4 7 -5 10 -14 7 -21 -3 -8 2 -19 10 -26 12 -10 13 -9 8 7 -5 17 -4 17 7 -1 15 -25 89 -95 101 -95 17 0 6 14 -52 72 -33 33 -60 64 -60 69 0 5 -7 9 -15 9 -9 0 -18 7 -21 15 -7 17 -20 20 -29 5z" fill="#000000" />
<path d="M5056 1708 c3 -5 10 -6 15 -3 13 9 11 12 -6 12 -8 0 -12 -4 -9 -9z" fill="#000000" />
<path d="M5030 1578 c0 -6 -3 -8 -6 -5 -12 12 -63 -53 -57 -71 6 -15 4 -15 -9 -4 -14 11 -20 10 -37 -7 -12 -12 -16 -21 -10 -21 5 0 7 -5 4 -10 -4 -6 -11 -8 -16 -5 -5 4 -32 -13 -59 -36 -36 -30 -47 -45 -38 -51 7 -4 9 -8 3 -9 -5 -1 -14 -2 -20 -4 -5 -1 -16 -3 -24 -3 -7 -1 -11 -8 -8 -16 3 -8 -1 -13 -11 -12 -9 0 -16 -5 -14 -12 1 -8 -2 -11 -7 -8 -5 3 -15 -2 -22 -11 -12 -15 -12 -16 4 -10 11 4 16 3 12 -4 -4 -5 -14 -7 -24 -4 -11 3 -26 -5 -42 -22 -13 -14 -18 -23 -10 -18 9 5 12 4 7 -3 -4 -6 -13 -9 -21 -5 -18 6 -20 -13 -2 -21 6 -3 3 -4 -9 -1 -15 4 -32 -8 -66 -44 -25 -26 -52 -51 -59 -53 -11 -4 -11 -8 -2 -18 9 -10 19 -5 48 21 67 62 134 119 195 169 23 19 56 47 72 62 16 16 39 35 53 44 14 9 22 21 18 30 -3 8 -2 14 3 12 16 -5 65 35 60 48 -3 8 -1 14 3 14 5 0 11 -5 13 -10 2 -6 19 6 38 27 19 21 28 32 20 26 -23 -21 -35 -15 -15 7 10 11 21 18 24 15 4 -2 12 5 19 16 7 11 8 19 2 19 -5 0 -10 -5 -10 -12z m-161 -171 c-28 -21 -59 -36 -59 -29 0 9 37 30 54 31 5 1 7 0 5 -2z m-79 -67 c0 -5 -4 -10 -10 -10 -5 0 -10 5 -10 10 0 6 5 10 10 10 6 0 10 -4 10 -10z m-110 -90 c-8 -5 -19 -10 -25 -10 -5 0 -3 5 5 10 8 5 20 10 25 10 6 0 3 -5 -5 -10z" fill="#000000" />
<path d="M605 1550 c-9 -14 13 -40 32 -40 10 0 13 -6 9 -16 -3 -8 -2 -12 4 -9 5 3 39 -26 76 -64 36 -39 70 -68 75 -65 5 3 12 -3 16 -13 7 -20 54 -73 64 -73 4 0 36 -28 71 -62 35 -35 102 -98 148 -141 87 -80 220 -204 345 -320 39 -37 74 -62 79 -57 5 5 -8 23 -30 42 -21 18 -56 50 -77 70 -22 21 -43 35 -48 32 -5 -3 -8 -1 -7 5 3 11 -224 234 -264 259 -16 9 -28 20 -28 24 0 16 -114 118 -131 118 -6 0 -7 4 -4 10 4 6 -1 7 -11 3 -12 -4 -15 -3 -10 6 5 7 -3 23 -20 39 -15 15 -24 21 -19 13 4 -8 -14 8 -41 35 -141 141 -223 214 -229 204z m523 -495 c-3 -3 -9 2 -12 12 -6 14 -5 15 5 6 7 -7 10 -15 7 -18z" fill="#000000" />
<path d="M506 1525 c4 -8 11 -15 16 -15 6 0 5 6 -2 15 -7 8 -14 15 -16 15 -2 0 -1 -7 2 -15z" fill="#000000" />
<path d="M3790 1510 c-8 -5 -10 -10 -5 -10 6 0 17 5 25 10 8 5 11 10 5 10 -5 0 -17 -5 -25 -10z" fill="#000000" />
<path d="M540 1496 c0 -2 7 -7 16 -10 8 -3 12 -2 9 4 -6 10 -25 14 -25 6z" fill="#000000" />
<path d="M612 1391 c-11 -7 -11 -9 0 -14 9 -3 15 1 15 9 0 8 -1 14 -1 14 -1 0 -7 -4 -14 -9z" fill="#000000" />
<path d="M4882 1350 c-7 -11 -8 -20 -3 -20 9 0 24 30 18 36 -1 2 -8 -6 -15 -16z" fill="#000000" />
<path d="M740 1181 c0 -10 19 -25 25 -20 1 2 -3 10 -11 17 -8 7 -14 8 -14 3z" fill="#000000" />
<path d="M4435 1059 c-16 -16 -34 -29 -39 -29 -4 0 -6 -7 -3 -14 4 -11 1 -13 -10 -9 -12 5 -14 3 -8 -7 6 -9 4 -12 -6 -8 -8 3 -25 -3 -38 -13 -14 -12 -18 -19 -10 -19 8 -1 1 -8 -15 -17 -16 -8 -39 -27 -52 -42 -12 -15 -34 -33 -48 -40 -14 -8 -23 -17 -21 -22 3 -4 -9 -18 -27 -31 -47 -33 -65 -48 -113 -95 -24 -23 -47 -38 -51 -35 -4 4 -4 1 0 -5 4 -7 2 -13 -4 -13 -6 0 -22 -11 -35 -25 -14 -13 -25 -22 -25 -20 0 2 -10 -6 -23 -18 -12 -12 -45 -41 -72 -65 -122 -107 -180 -159 -198 -179 -17 -19 -23 -21 -36 -10 -14 10 -14 10 -3 -4 13 -17 57 -15 46 2 -3 5 0 10 5 10 6 1 17 2 24 3 6 1 11 7 10 14 -2 7 4 12 12 12 9 0 12 6 8 17 -4 11 -3 14 5 9 7 -4 22 3 35 16 13 13 42 39 66 58 24 19 55 47 70 61 22 22 177 157 275 240 16 13 39 33 50 44 12 11 40 37 63 57 23 20 38 40 35 44 -4 4 -1 5 7 2 7 -2 35 17 61 42 26 25 64 58 84 73 20 16 34 33 31 38 -9 14 -17 10 -50 -22z" fill="#000000" />
<path d="M945 979 c-4 -6 -5 -12 -2 -15 2 -3 7 2 10 11 7 17 1 20 -8 4z" fill="#000000" />
<path d="M4575 960 c-3 -6 1 -7 9 -4 18 7 21 14 7 14 -6 0 -13 -4 -16 -10z" fill="#000000" />
<path d="M990 896 c0 -2 8 -10 18 -17 15 -13 16 -12 3 4 -13 16 -21 21 -21 13z" fill="#000000" />
<path d="M1105 823 c3 -3 0 -11 -5 -18 -7 -8 -5 -12 4 -12 14 0 16 22 3 32 -4 3 -5 2 -2 -2z" fill="#000000" />
<path d="M4405 810 c3 -5 8 -10 11 -10 2 0 4 5 4 10 0 6 -5 10 -11 10 -5 0 -7 -4 -4 -10z" fill="#000000" />
<path d="M1170 747 c0 -2 6 -10 14 -16 11 -9 16 -9 22 1 4 7 4 10 -1 6 -4 -4 -14 -3 -22 3 -7 6 -13 9 -13 6z" fill="#000000" />
<path d="M1530 674 c0 -9 9 -18 20 -21 11 -3 20 -10 20 -15 0 -9 57 -68 66 -68 8 0 52 -49 48 -54 -2 -3 -2 -4 1 -3 3 2 28 -18 57 -45 28 -26 56 -48 60 -48 5 0 6 -6 2 -12 -4 -7 -4 -10 1 -6 7 7 35 -14 37 -29 2 -12 31 -32 47 -33 8 0 20 -8 28 -17 12 -14 12 -13 0 7 -9 14 -21 24 -27 22 -6 -1 -9 2 -6 6 3 5 -9 21 -27 35 -42 34 -149 133 -243 225 -41 39 -76 72 -79 72 -3 0 -5 -7 -5 -16z" fill="#000000" />
<path d="M1285 670 c-3 -5 -2 -10 2 -12 13 -7 33 -3 36 6 3 12 -31 17 -38 6z" fill="#000000" />
<path d="M4105 590 c-3 -5 -12 -7 -20 -3 -8 3 -15 3 -15 0 0 -13 30 -14 40 -1 7 8 10 14 7 14 -3 0 -8 -4 -12 -10z" fill="#000000" />
<path d="M1480 551 c0 -9 30 -24 36 -18 2 1 -6 8 -16 15 -11 7 -20 8 -20 3z" fill="#000000" />
<path d="M4007 545 c3 -8 9 -12 14 -9 12 7 11 11 -5 17 -10 4 -13 1 -9 -8z" fill="#000000" />
<path d="M1547 514 c-3 -4 3 -15 15 -25 26 -24 35 -24 17 -2 -12 15 -12 16 4 10 11 -4 16 -3 12 4 -4 6 -13 8 -20 5 -8 -3 -15 0 -17 5 -2 6 -7 7 -11 3z" fill="#000000" />
<path d="M3936 508 c3 -5 9 -7 12 -4 3 3 12 0 21 -6 13 -10 14 -10 4 2 -15 16 -46 23 -37 8z" fill="#000000" />
<path d="M3798 413 c7 -3 16 -2 19 1 4 3 -2 6 -13 5 -11 0 -14 -3 -6 -6z" fill="#000000" />
<path d="M3823 5295 c0 -8 4 -12 9 -9 5 3 6 10 3 15 -9 13 -12 11 -12 -6z" fill="#000000" />
<path d="M1225 5069 c-4 -6 -5 -12 -2 -15 2 -3 7 2 10 11 7 17 1 20 -8 4z" fill="#000000" />
<path d="M4300 5051 c0 -6 4 -13 10 -16 6 -3 7 1 4 9 -7 18 -14 21 -14 7z" fill="#000000" />
<path d="M1046 4898 c3 -5 10 -6 15 -3 13 9 11 12 -6 12 -8 0 -12 -4 -9 -9z" fill="#000000" />
<path d="M649 4508 c0 -2 -2 -11 -4 -21 -3 -15 -1 -16 11 -6 7 6 11 15 8 20 -5 9 -13 12 -15 7z" fill="#000000" />
<path d="M413 4105 c0 -8 4 -12 9 -9 5 3 6 10 3 15 -9 13 -12 11 -12 -6z" fill="#000000" />
<path d="M323 1655 c0 -8 4 -12 9 -9 5 3 6 10 3 15 -9 13 -12 11 -12 -6z" fill="#000000" />
<path d="M5009 1368 c-6 -18 -3 -46 3 -42 5 4 7 12 4 19 -3 8 0 16 7 19 9 3 9 5 0 5 -7 1 -13 0 -14 -1z" fill="#000000" />
<path d="M4690 946 c0 -2 8 -10 18 -17 15 -13 16 -12 3 4 -13 16 -21 21 -21 13z" fill="#000000" />
<path d="M4107 459 c7 -7 15 -10 18 -7 3 3 -2 9 -12 12 -14 6 -15 5 -6 -5z" fill="#000000" />
<path d="M1690 331 c0 -6 4 -13 10 -16 6 -3 7 1 4 9 -7 18 -14 21 -14 7z" fill="#000000" />
</g>
</svg>